<svg width="100" height="25" viewBox="0 0 100 25" fill="none" xmlns="http://www.w3.org/2000/svg">
<path d="M6.34093 24H0.295471L12.0114 0.727264H19.5L23.4887 24H17.4432L14.8864 6.5909H14.7046L6.34093 24ZM7.0682 14.8409H19.7046L18.9773 19.1136H6.34093L7.0682 14.8409Z" fill="white"/>
<path d="M25.9943 24L29.858 0.727264H35.4148L33.9716 9.53408H34.0852C34.3883 9.00378 34.7898 8.49242 35.2898 7.99999C35.7974 7.50757 36.4072 7.10605 37.1193 6.79545C37.8315 6.47727 38.6458 6.31817 39.5625 6.31817C40.7746 6.31817 41.8542 6.63636 42.8012 7.27272C43.7481 7.90908 44.4375 8.89014 44.8693 10.2159C45.3011 11.5417 45.3466 13.2311 45.0057 15.2841C44.6799 17.2614 44.0928 18.9167 43.2443 20.25C42.3958 21.5833 41.3845 22.5833 40.2102 23.25C39.0436 23.9167 37.8163 24.25 36.5284 24.25C35.6496 24.25 34.911 24.1061 34.3125 23.8182C33.7216 23.5303 33.2481 23.1515 32.8921 22.6818C32.5436 22.2121 32.3012 21.7083 32.1648 21.1704H31.9489L31.4943 24H25.9943ZM32.8921 15.2727C32.7405 16.2121 32.733 17.0303 32.8693 17.7273C33.0133 18.4242 33.2898 18.9659 33.6989 19.3523C34.1155 19.7311 34.6648 19.9204 35.3466 19.9204C36.0284 19.9204 36.6383 19.7311 37.1762 19.3523C37.714 18.9659 38.1648 18.4242 38.5284 17.7273C38.8921 17.0303 39.1496 16.2121 39.3012 15.2727C39.4527 14.3333 39.4602 13.5189 39.3239 12.8295C39.1951 12.1401 38.9261 11.6061 38.5171 11.2273C38.108 10.8485 37.5587 10.6591 36.8693 10.6591C36.1875 10.6591 35.5739 10.8447 35.0284 11.2159C34.4905 11.5871 34.036 12.1174 33.6648 12.8068C33.3012 13.4962 33.0436 14.3182 32.8921 15.2727Z" fill="white"/>
<path d="M54.5994 24.3295C52.7585 24.3295 51.2396 23.9508 50.0426 23.1932C48.8532 22.4356 48.0161 21.3788 47.5313 20.0227C47.0464 18.6667 46.9517 17.0909 47.2472 15.2954C47.5426 13.5076 48.1525 11.9394 49.0767 10.5909C50.001 9.24242 51.1828 8.19317 52.6222 7.44317C54.0616 6.69317 55.6941 6.31817 57.5199 6.31817C59.3532 6.31817 60.8646 6.69696 62.054 7.45454C63.251 8.21211 64.0919 9.26893 64.5767 10.625C65.0691 11.9811 65.1676 13.5606 64.8722 15.3636C64.5767 17.1515 63.9631 18.7197 63.0313 20.0682C62.0994 21.4091 60.9176 22.4545 59.4858 23.2045C58.054 23.9545 56.4252 24.3295 54.5994 24.3295ZM55.2244 20.1364C55.9063 20.1364 56.5161 19.9318 57.054 19.5227C57.5994 19.1136 58.0578 18.5417 58.429 17.8068C58.8002 17.072 59.0654 16.2197 59.2244 15.25C59.3835 14.2954 59.3987 13.4583 59.2699 12.7386C59.1487 12.0114 58.8911 11.447 58.4972 11.0454C58.1032 10.6364 57.5691 10.4318 56.8949 10.4318C56.2131 10.4318 55.5994 10.6401 55.054 11.0568C54.5085 11.4659 54.0502 12.0379 53.679 12.7727C53.3154 13.5 53.054 14.3523 52.8949 15.3295C52.7358 16.2841 52.7169 17.1212 52.8381 17.8409C52.9593 18.5606 53.2207 19.125 53.6222 19.5341C54.0237 19.9356 54.5578 20.1364 55.2244 20.1364Z" fill="white"/>
<path d="M78.7869 16.4659L80.446 6.54545H85.9915L83.0824 24H77.7869L78.321 20.75H78.1392C77.6013 21.8182 76.8097 22.6667 75.7642 23.2954C74.7188 23.9167 73.5407 24.2273 72.2301 24.2273C71.0407 24.2273 70.0407 23.9545 69.2301 23.4091C68.4195 22.8636 67.8438 22.1023 67.5029 21.125C67.1695 20.1401 67.1089 18.9886 67.321 17.6704L69.1847 6.54545H74.7415L73.071 16.5795C72.9271 17.5265 73.0521 18.2727 73.446 18.8182C73.8476 19.3636 74.4763 19.6364 75.3324 19.6364C75.8854 19.6364 76.4044 19.5151 76.8892 19.2727C77.3741 19.0227 77.7832 18.6629 78.1165 18.1932C78.4574 17.7159 78.6809 17.1401 78.7869 16.4659Z" fill="white"/>
<path d="M99.3807 6.54545L98.6875 10.6364H87.6762L88.3693 6.54545H99.3807ZM91.358 2.36363H96.9148L94.233 18.5114C94.1799 18.8523 94.1875 19.1288 94.2557 19.3409C94.3315 19.5454 94.4678 19.6932 94.6648 19.7841C94.8693 19.8674 95.1193 19.9091 95.4148 19.9091C95.6193 19.9091 95.8466 19.8864 96.0966 19.8409C96.3466 19.7954 96.536 19.7614 96.6648 19.7386L96.8466 23.75C96.5511 23.8333 96.1534 23.928 95.6534 24.0341C95.161 24.1477 94.5852 24.2197 93.9262 24.25C92.5928 24.303 91.4905 24.1477 90.6193 23.7841C89.7557 23.4129 89.1458 22.8371 88.7898 22.0568C88.4413 21.2765 88.3731 20.2992 88.5852 19.125L91.358 2.36363Z" fill="white"/>
</svg>
