<svg width="80" height="25" viewBox="0 0 80 25" fill="none" xmlns="http://www.w3.org/2000/svg">
<path d="M9.03404 24H0.306763L4.1704 0.727264H12.6363C14.9999 0.727264 16.9696 1.20833 18.5454 2.17045C20.1287 3.12499 21.2462 4.4962 21.8977 6.28408C22.5568 8.06439 22.6818 10.1856 22.2727 12.6477C21.8787 15.0265 21.0871 17.0644 19.8977 18.7614C18.7159 20.4583 17.2007 21.7576 15.3522 22.6591C13.5037 23.553 11.3977 24 9.03404 24ZM6.71585 19.2045H9.38631C10.6893 19.2045 11.8409 18.9697 12.8409 18.5C13.8484 18.0227 14.6818 17.2614 15.3409 16.2159C15.9999 15.1629 16.4696 13.7803 16.7499 12.0682C17.0227 10.4318 17.0113 9.14014 16.7159 8.19317C16.428 7.23863 15.8674 6.55681 15.034 6.14772C14.2083 5.73105 13.1287 5.52272 11.7954 5.52272H8.99994L6.71585 19.2045Z" fill="black"/>
<path d="M31.8181 24.3295C29.9772 24.3295 28.4583 23.9508 27.2613 23.1932C26.0719 22.4356 25.2348 21.3788 24.7499 20.0227C24.2651 18.6667 24.1704 17.0909 24.4659 15.2954C24.7613 13.5076 25.3712 11.9394 26.2954 10.5909C27.2196 9.24242 28.4015 8.19317 29.8409 7.44317C31.2802 6.69317 32.9128 6.31817 34.7386 6.31817C36.5719 6.31817 38.0833 6.69696 39.2727 7.45454C40.4696 8.21211 41.3105 9.26893 41.7954 10.625C42.2878 11.9811 42.3863 13.5606 42.0909 15.3636C41.7954 17.1515 41.1818 18.7197 40.2499 20.0682C39.3181 21.4091 38.1363 22.4545 36.7045 23.2045C35.2727 23.9545 33.6439 24.3295 31.8181 24.3295ZM32.4431 20.1364C33.1249 20.1364 33.7348 19.9318 34.2727 19.5227C34.8181 19.1136 35.2765 18.5417 35.6477 17.8068C36.0189 17.072 36.284 16.2197 36.4431 15.25C36.6022 14.2954 36.6174 13.4583 36.4886 12.7386C36.3674 12.0114 36.1098 11.447 35.7159 11.0454C35.3219 10.6364 34.7878 10.4318 34.1136 10.4318C33.4318 10.4318 32.8181 10.6401 32.2727 11.0568C31.7272 11.4659 31.2689 12.0379 30.8977 12.7727C30.534 13.5 30.2727 14.3523 30.1136 15.3295C29.9545 16.2841 29.9356 17.1212 30.0568 17.8409C30.178 18.5606 30.4393 19.125 30.8409 19.5341C31.2424 19.9356 31.7765 20.1364 32.4431 20.1364Z" fill="black"/>
<path d="M51.5965 24.3295C49.7556 24.3295 48.2367 23.9508 47.0397 23.1932C45.8503 22.4356 45.017 21.3826 44.5397 20.0341C44.0624 18.678 43.9753 17.1098 44.2784 15.3295C44.5662 13.5417 45.1761 11.9735 46.1079 10.625C47.0397 9.26893 48.2291 8.21211 49.6761 7.45454C51.123 6.69696 52.7594 6.31817 54.5852 6.31817C56.1988 6.31817 57.5549 6.60984 58.6534 7.19317C59.7594 7.77651 60.5587 8.60226 61.0511 9.67045C61.5511 10.7311 61.6988 11.9773 61.4943 13.4091H56.3011C56.3465 12.5227 56.1647 11.8257 55.7556 11.3182C55.3465 10.803 54.7518 10.5454 53.9715 10.5454C53.3124 10.5454 52.7064 10.7273 52.1534 11.0909C51.6079 11.447 51.142 11.9773 50.7556 12.6818C50.3768 13.3788 50.1041 14.2424 49.9374 15.2727C49.7708 16.303 49.7594 17.1742 49.9034 17.8864C50.0549 18.5909 50.339 19.125 50.7556 19.4886C51.1799 19.8447 51.7177 20.0227 52.3693 20.0227C52.8844 20.0227 53.3617 19.9129 53.8011 19.6932C54.2405 19.4735 54.623 19.1515 54.9488 18.7273C55.2746 18.2954 55.5284 17.7727 55.7102 17.1591H60.892C60.5965 18.6061 60.0246 19.8674 59.1761 20.9432C58.3352 22.0114 57.2708 22.8447 55.9829 23.4432C54.695 24.0341 53.2329 24.3295 51.5965 24.3295Z" fill="black"/>
<path d="M79.8039 11.875L74.7926 12.0114C74.8001 11.6401 74.7168 11.3144 74.5426 11.0341C74.3683 10.7462 74.1221 10.5227 73.8039 10.3636C73.4857 10.2045 73.107 10.125 72.6676 10.125C71.9554 10.125 71.3153 10.2841 70.7471 10.6023C70.1865 10.9204 69.8721 11.3333 69.8039 11.8409C69.7509 12.1136 69.8267 12.3523 70.0312 12.5568C70.2357 12.7538 70.6903 12.928 71.3948 13.0795L74.6676 13.7159C76.3494 14.0492 77.5691 14.6288 78.3267 15.4545C79.0918 16.2727 79.3645 17.3561 79.1448 18.7045C78.9479 19.8561 78.4403 20.8523 77.6221 21.6932C76.8115 22.5341 75.7774 23.1856 74.5198 23.6477C73.2698 24.1023 71.8873 24.3295 70.3721 24.3295C67.8115 24.3295 65.8797 23.8144 64.5767 22.7841C63.2812 21.7462 62.6751 20.3712 62.7585 18.6591L68.1676 18.5227C68.1903 19.1667 68.4062 19.6515 68.8153 19.9773C69.232 20.2954 69.7963 20.4621 70.5085 20.4773C71.2888 20.4924 71.963 20.3295 72.5312 19.9886C73.0994 19.6477 73.4176 19.2273 73.4857 18.7273C73.5312 18.4015 73.4213 18.1477 73.1562 17.9659C72.8986 17.7841 72.4176 17.6212 71.713 17.4773L68.7585 16.8977C67.0615 16.572 65.8342 15.9583 65.0767 15.0568C64.3267 14.1477 64.0691 12.9886 64.3039 11.5795C64.5009 10.4583 64.963 9.50757 65.6903 8.72726C66.4251 7.93939 67.3835 7.3409 68.5653 6.93181C69.7547 6.52272 71.1107 6.31817 72.6335 6.31817C75.0729 6.31817 76.9138 6.81439 78.1562 7.80681C79.4062 8.79166 79.9554 10.1477 79.8039 11.875Z" fill="black"/>
</svg>
