<svg width="245" height="50" viewBox="0 0 245 50" fill="none" xmlns="http://www.w3.org/2000/svg">
<path d="M33.7522 16.8719C33.6669 15.9168 33.4597 15.0747 33.1306 14.3455C32.8017 13.6011 32.3508 12.9696 31.7781 12.4511C31.2054 11.9326 30.4955 11.5421 29.6486 11.2795C28.8017 11.0018 27.8177 10.8597 26.6965 10.8531C24.4541 10.8399 22.3752 11.3732 20.4597 12.4529C18.5442 13.5326 16.9213 15.114 15.5909 17.1972C14.2605 19.2651 13.3442 21.7825 12.842 24.7493C12.3396 27.7313 12.3096 30.2766 12.7517 32.3853C13.2091 34.4941 14.139 36.1056 15.5416 37.2199C16.9442 38.3342 18.8045 38.8982 21.1227 38.9118C23.1984 38.924 25.0337 38.6014 26.6285 37.9441C28.2233 37.2716 29.5168 36.3171 30.509 35.0804C31.5162 33.8439 32.1536 32.3855 32.421 30.7052L34.4877 30.9673L23.1697 30.9009L24.5815 22.7045L44.6266 22.8221L43.5677 28.9751C42.8615 33.1377 41.3709 36.6972 39.0959 39.6536C36.8361 42.6101 34.0197 44.8739 30.6468 46.4451C27.2891 48.0163 23.6102 48.7902 19.6103 48.7667C15.1861 48.7408 11.457 47.7568 8.42288 45.8147C5.38877 43.8726 3.23823 41.1175 1.97126 37.5494C0.704376 33.9662 0.486842 29.7224 1.31866 24.8181C1.97741 21.0037 3.12604 17.624 4.76456 14.6791C6.41831 11.719 8.43303 9.21563 10.8087 7.16893C13.1996 5.12231 15.8374 3.57715 18.7224 2.53345C21.6074 1.48975 24.6029 0.977012 27.7089 0.995232C30.3906 1.01096 32.8277 1.41163 35.0201 2.19723C37.2125 2.98284 39.0849 4.08475 40.6372 5.50297C42.1895 6.92119 43.3539 8.60229 44.1304 10.5463C44.922 12.4903 45.258 14.6211 45.1384 16.9387L33.7522 16.8719Z" fill="white"/>
<path d="M63.1492 49.0449C59.4674 49.0233 56.4341 48.2479 54.049 46.7187C51.6792 45.1896 50.0174 43.0662 49.0636 40.3485C48.1098 37.6307 47.9389 34.4781 48.5509 30.8907C49.1628 27.3185 50.4008 24.1894 52.2651 21.5033C54.1294 18.8172 56.5053 16.7326 59.3928 15.2495C62.2804 13.7664 65.5499 13.0356 69.2013 13.057C72.8679 13.0785 75.8862 13.8538 78.256 15.3829C80.641 16.9121 82.3104 19.0355 83.2642 21.7533C84.2331 24.4712 84.4115 27.6314 83.7995 31.2339C83.1876 34.8061 81.942 37.9352 80.0625 40.6212C78.1832 43.2921 75.8073 45.3691 72.9349 46.8522C70.0626 48.3354 66.8007 49.0663 63.1492 49.0449ZM64.4484 40.666C65.812 40.674 67.0341 40.2721 68.1146 39.4602C69.2103 38.6484 70.1336 37.5099 70.8847 36.0446C71.6357 34.5793 72.176 32.8778 72.5056 30.9404C72.8349 29.0332 72.8751 27.3591 72.6259 25.9182C72.392 24.4623 71.8835 23.3305 71.1004 22.5229C70.3173 21.7001 69.2515 21.2847 67.9031 21.2768C66.5395 21.2688 65.3098 21.6783 64.214 22.5052C63.1183 23.317 62.1949 24.4555 61.4439 25.9208C60.7081 27.3711 60.1754 29.0725 59.8458 31.0252C59.5164 32.9324 59.4687 34.6064 59.7027 36.0472C59.9366 37.4879 60.4527 38.6198 61.2509 39.4427C62.0493 40.2504 63.1151 40.6582 64.4484 40.666Z" fill="white"/>
<path d="M86.5049 48.5228L94.5051 2.02345L113.732 2.13624C117.217 2.15669 120.122 2.80253 122.448 4.07377C124.774 5.32986 126.423 7.12744 127.394 9.46651C128.365 11.7904 128.576 14.5417 128.027 17.7204C127.493 20.9294 126.326 23.6575 124.525 25.9045C122.739 28.1365 120.441 29.8352 117.631 31.0005C114.836 32.166 111.666 32.7383 108.121 32.7175L95.9619 32.6462L97.5138 23.7915L107.582 23.8505C109.264 23.8604 110.719 23.6492 111.949 23.2171C113.179 22.7697 114.16 22.0936 114.893 21.1888C115.641 20.269 116.14 19.0901 116.391 17.6521C116.627 16.2141 116.528 15.0241 116.094 14.0821C115.675 13.1251 114.929 12.4086 113.856 11.9326C112.799 11.4415 111.436 11.1911 109.77 11.1813L104.224 11.1488L97.7547 48.5888L86.5049 48.5228ZM116.356 27.4248L124.3 48.7445L112.027 48.6725L104.334 27.3543L116.356 27.4248Z" fill="white"/>
<path d="M154.49 33.8532L157.924 14.0321L169.015 14.0971L162.992 48.9715L152.402 48.9093L153.508 42.4157L153.144 42.4136C152.056 44.5436 150.463 46.2313 148.364 47.4765C146.266 48.7067 143.907 49.3141 141.285 49.2987C138.907 49.2847 136.91 48.7276 135.295 47.6272C133.68 46.5268 132.538 44.9973 131.867 43.0388C131.212 41.0652 131.105 38.7615 131.544 36.1277L135.402 13.8999L146.515 13.9651L143.057 34.0134C142.758 35.9056 142.999 37.3994 143.781 38.495C144.577 39.5906 145.832 40.1434 147.544 40.1534C148.65 40.1599 149.689 39.9236 150.662 39.4444C151.634 38.9501 152.457 38.2352 153.129 37.2998C153.816 36.3492 154.27 35.2004 154.49 33.8532Z" fill="white"/>
<path d="M170.066 49.013L178.066 2.51365L209.838 2.70003L208.239 11.8272L187.717 11.7068L186.116 21.243L204.615 21.3515L203.016 30.5014L184.516 30.3929L181.316 49.079L170.066 49.013Z" fill="white"/>
<path d="M230.426 34.2986L233.861 14.4775L244.951 14.5426L238.928 49.4169L228.338 49.3548L229.444 42.8612L229.08 42.8591C227.992 44.9891 226.399 46.6767 224.301 47.922C222.202 49.1521 219.843 49.7595 217.222 49.7441C214.843 49.7302 212.846 49.173 211.231 48.0726C209.617 46.9722 208.474 45.4428 207.804 43.4843C207.149 41.5107 207.041 39.207 207.481 36.5731L211.338 14.3454L222.452 14.4106L218.993 34.4588C218.694 36.351 218.935 37.8449 219.717 38.9404C220.513 40.036 221.768 40.5888 223.48 40.5989C224.586 40.6054 225.625 40.369 226.598 39.8899C227.57 39.3956 228.393 38.6807 229.065 37.7452C229.752 36.7947 230.206 35.6458 230.426 34.2986Z" fill="white"/>
</svg>
