<svg width="120" height="80" viewBox="0 0 120 80" fill="none" xmlns="http://www.w3.org/2000/svg">
<path d="M115.323 6.86743C110.991 1.98968 102.994 0 87.7204 0H32.2785C16.6556 0 8.52271 2.11802 4.20735 7.31113C0 12.3744 0 19.8348 0 30.1602V49.8402C0 69.8437 4.992 80 32.2785 80H87.7208C100.966 80 108.305 78.2443 113.053 73.9397C117.922 69.5254 120 62.318 120 49.8402V30.1602C120 19.2712 119.674 11.7668 115.323 6.86743ZM77.0404 42.7172L51.8644 55.1815C51.3015 55.4602 50.6861 55.5984 50.0714 55.5984C49.3754 55.5984 48.6809 55.4209 48.0658 55.0682C46.9076 54.4033 46.2004 53.2142 46.2004 51.9315V27.0829C46.2004 25.8024 46.9057 24.6143 48.0615 23.9491C49.2178 23.2839 50.6559 23.2385 51.8555 23.8288L77.0315 36.2128C78.3124 36.8428 79.1168 38.0954 79.1187 39.4621C79.1203 40.8298 78.3194 42.0843 77.0404 42.7172Z" fill="black"/>
</svg>
